<svg width="1089" height="1098" viewBox="0 0 1089 1098" fill="none" xmlns="http://www.w3.org/2000/svg">
<rect width="1089" height="1098" rx="200" fill="#F7BE0F"/>
<path d="M496.697 315.885C497.021 330.591 577.639 391.753 618.92 326.996C618.92 326.996 607.307 449.425 630.031 493.662C656.569 545.327 624.704 747.785 574.475 815.885C557.5 838.9 495.02 873.999 463.364 760.329C431.709 646.659 441.142 650.753 441.142 582.551C441.142 514.349 524.817 371.44 496.697 315.885Z" stroke="white" stroke-width="22.2222" stroke-miterlimit="10" stroke-linecap="round" stroke-linejoin="round"/>
<path d="M641.142 293.662C651.853 282.959 686.015 268.062 689.576 260.92C691.271 257.532 682.33 251.73 678.865 250.209C668.224 245.556 643.165 250.209 632.454 248.425C593.186 228.793 564.629 225.226 539.646 235.93C500.379 253.783 493.242 300.181 493.242 318.035C493.242 334.132 492.336 366.43 489.667 382.286C488.589 388.696 485.062 401.301 482.532 407.282C475.39 432.271 457.535 457.261 443.256 475.108C432.981 487.962 346.874 585.777 332.595 614.333C319.775 639.178 286.191 696.438 300.47 717.852C315.032 719.94 318.316 671.448 389.855 614.333C407.159 598.695 435.863 569.523 441.142 560.329C443.643 555.972 441.236 577.529 441.142 582.551C439.491 669.921 452.253 715.885 452.176 767.83C457.529 796.388 457.763 806.628 452.176 817.809C436.106 849.935 407.55 849.935 400.414 862.436C400.414 862.436 433.735 885.658 509.661 839.66M674.091 603.885C685.454 616.271 699.393 627.577 707.409 635.755C727.413 656.152 775.234 728.562 785.937 717.852C789.533 714.285 795.079 696.209 793.101 689.288C771.68 614.327 693.002 522.31 651.307 449.849M584.106 852.17C636.974 872.539 678.647 857.479 678.647 857.479C675.731 853.35 645.877 837.353 628.894 830.812" stroke="white" stroke-width="22.2222" stroke-miterlimit="10" stroke-linecap="round" stroke-linejoin="round"/>
</svg>
