<?xml version="1.0" encoding="UTF-8"?>
<svg xmlns="http://www.w3.org/2000/svg" width="207" height="34" viewBox="0 0 207 34" fill="none">
  <path d="M0 24.1627V9.79682C0 3.52442 2.58957 0.408447 7.89009 0.408447C13.1906 0.408447 15.7802 3.52442 15.7802 9.79682V13.9649H9.95365V7.93533C9.95365 5.62871 9.22534 4.98123 7.89009 4.98123C6.55484 4.98123 5.82653 5.62871 5.82653 7.93533V26.1051C5.82653 28.3712 6.55484 29.0187 7.89009 29.0187C9.22534 29.0187 9.95365 28.3712 9.95365 26.1051V20.035H15.7802V24.1627C15.7802 30.4351 13.1906 33.5915 7.89009 33.5915C2.58957 33.5915 0 30.4351 0 24.1627Z" fill="#191919"></path>
  <path d="M20.716 0.811707H28.6465L32.9355 33.1854H27.1494L26.6639 27.601H22.7391L22.2535 33.1854H16.427L20.716 0.811707ZM26.2188 22.8663L24.8026 6.88178L24.6812 5.95103L24.6003 6.88178L23.1842 22.8663H26.2188Z" fill="#191919"></path>
  <path d="M34.3108 0.811707H40.9061L44.0217 20.0741L47.1777 0.811707H53.773V33.1854H48.6748V14.4087L45.3569 33.1854H42.6864L39.409 14.4087V33.1854H34.3108V0.811707Z" fill="#191919"></path>
  <path d="M56.2395 0.811707H62.9157C69.6729 0.811707 71.9792 3.32067 71.9792 10.888V12.1425C71.9792 19.5885 69.6729 22.2998 62.9157 22.2998H61.9446V33.1854H56.2395V0.811707ZM63.725 18.0102C65.5458 18.0102 66.1527 16.9176 66.1527 14.5301V8.50046C66.1527 6.1129 65.5458 5.10122 63.725 5.10122H61.9446V18.0102H63.725Z" fill="#191919"></path>
  <path d="M73.5593 24.4445V0.811707H79.3859V26.1037C79.3859 28.2484 80.0332 29.0173 81.4494 29.0173C82.8656 29.0173 83.513 28.2484 83.513 26.1037V0.811707H89.299V24.4445C89.299 30.7169 86.7499 33.5901 81.4494 33.5901C76.1489 33.5901 73.5593 30.7169 73.5593 24.4445Z" fill="#191919"></path>
  <path d="M91.0398 24.2031V21.9774H96.8663V26.1051C96.8663 28.3308 97.5137 29.0187 98.9703 29.0187C100.427 29.0187 100.993 28.2903 100.993 26.2265V24.4055C100.993 22.0584 100.265 21.0467 98.8894 19.9945L95.5715 17.3237C92.8201 15.098 91.1207 12.7914 91.1207 8.66374C91.1207 3.56488 93.6698 0.408447 98.9703 0.408447C103.907 0.408447 106.699 3.24115 106.699 8.54234V10.9704H100.913V7.89487C100.913 5.54777 100.184 4.98123 98.8894 4.98123C97.5137 4.98123 96.9068 5.62871 96.9068 7.57113V8.78514C96.9068 10.9299 97.6351 11.9011 98.9299 12.9128L102.207 15.5432C104.918 17.7284 106.82 19.7113 106.82 24.7292C106.82 30.5565 104.311 33.5915 98.9299 33.5915C93.5484 33.5915 91.0398 30.4351 91.0398 24.2031Z" fill="#191919"></path>
  <path d="M151.567 0.811707H159.053C164.96 0.811707 166.983 4.00861 166.983 8.8242V9.83588C166.983 13.397 165.405 15.1371 163.058 16.0678C165.607 17.0795 167.226 19.1029 167.226 23.1496V24.1208C167.226 30.1908 165.324 33.1854 159.214 33.1854H151.567V0.811707ZM158.405 14.0445C160.186 14.0445 161.157 13.4779 161.157 11.1308V8.37906C161.157 5.9915 160.428 5.54636 158.446 5.54636H157.272V14.0445H158.405ZM158.486 28.4508C160.914 28.4508 161.44 27.8438 161.44 25.2943V22.0165C161.44 19.6694 160.671 18.7791 158.486 18.7791H157.272V28.4508H158.486Z" fill="#191919"></path>
  <path d="M169.089 0.811707H174.794V33.1854H169.089V0.811707Z" fill="#191919"></path>
  <path d="M183.652 19.548H182.964V33.1854H177.259V0.811707H182.964V14.4491H183.652L187.455 0.811707H193.363L188.386 16.9986L193.363 33.1854H187.455L183.652 19.548Z" fill="#191919"></path>
  <path d="M194.538 0.811707H207V5.54636H200.243V14.6515H206.636V19.3457H200.243V28.4508H207V33.1854H194.538V0.811707Z" fill="#191919"></path>
  <path d="M129.192 1.42013C137.78 1.42013 144.77 8.40745 144.77 17C144.77 25.5925 137.783 32.5798 129.192 32.5798C120.6 32.5798 113.614 25.5925 113.614 17C113.614 8.40745 120.604 1.42013 129.192 1.42013ZM129.192 0.408447C120.03 0.408447 112.602 7.83754 112.602 17C112.602 26.1624 120.03 33.5915 129.192 33.5915C138.353 33.5915 145.781 26.1624 145.781 17C145.781 7.83754 138.353 0.408447 129.192 0.408447Z" fill="#191919"></path>
</svg>
